# xmcd CD database file
#
# Track frame offsets:
#	150
#	12502
#	25722
#	38112
#	51887
#	63592
#	76307
#	89857
#	102105
#	115202
#	128447
#	141345
#	154465
#
# Disc length: 2226 seconds
#
# Revision: 0
# Processed by: cddbd v1.5PL3 Copyright (c) Steve Scherf et al.
# Submitted via: CDex 1.50beta10
#
DISCID=ae08b00d
DTITLE=John Brim - Authorized Blues
DYEAR=1999
DGENRE=Blues
TTITLE0=Dark Clouds
TTITLE1=Lonesome Man Blues
TTITLE2=Going Down The Line
TTITLE3=Young And Wild
TTITLE4=Love My Baby
TTITLE5=Trouble In The Morning
TTITLE6=Humming Blues
TTITLE7=Hard Pill To Swallow
TTITLE8=Drinking Woman
TTITLE9=Don't Leave Me
TTITLE10=Moonlight Blues
TTITLE11=Moving Out
TTITLE12=You Put The Hurt On Me
EXTD=YEAR: 1999
EXTT0=
EXTT1=
EXTT2=
EXTT3=
EXTT4=
EXTT5=
EXTT6=
EXTT7=
EXTT8=
EXTT9=
EXTT10=
EXTT11=
EXTT12=
PLAYORDER=
